<svg xmlns="http://www.w3.org/2000/svg" width="900" height="420" viewBox="0 0 900 420">
<rect width="100%" height="100%" fill="white"/>
<text x="450.0" y="28" text-anchor="middle" font-size="20" font-family="Arial">BSS Portfolio Weights by Rebalance Period</text>
<line x1="55" y1="365" x2="845" y2="365" stroke="#333"/>
<line x1="55" y1="55" x2="55" y2="365" stroke="#333"/>
<text x="15" y="55" font-size="12" font-family="Arial">100%</text>
<text x="20" y="365" font-size="12" font-family="Arial">0%</text>
<rect x="65.0" y="270.1" width="138.0" height="94.9" fill="#d62728"/>
<rect x="65.0" y="264.8" width="138.0" height="5.3" fill="#8c564b"/>
<rect x="65.0" y="224.2" width="138.0" height="40.6" fill="#e377c2"/>
<rect x="65.0" y="219.6" width="138.0" height="4.6" fill="#7f7f7f"/>
<rect x="65.0" y="157.4" width="138.0" height="62.2" fill="#bcbd22"/>
<rect x="65.0" y="151.3" width="138.0" height="6.2" fill="#17becf"/>
<rect x="65.0" y="126.6" width="138.0" height="24.7" fill="#1f77b4"/>
<rect x="65.0" y="113.6" width="138.0" height="12.9" fill="#2ca02c"/>
<rect x="65.0" y="109.8" width="138.0" height="3.8" fill="#d62728"/>
<rect x="65.0" y="56.5" width="138.0" height="53.2" fill="#8c564b"/>
<rect x="65.0" y="55.0" width="138.0" height="1.5" fill="#e377c2"/>
<text x="134.0" y="402" text-anchor="middle" font-size="12" font-family="Arial">1</text>
<rect x="223.0" y="351.1" width="138.0" height="13.9" fill="#1f77b4"/>
<rect x="223.0" y="270.7" width="138.0" height="80.4" fill="#d62728"/>
<rect x="223.0" y="269.7" width="138.0" height="0.9" fill="#9467bd"/>
<rect x="223.0" y="194.1" width="138.0" height="75.6" fill="#8c564b"/>
<rect x="223.0" y="184.0" width="138.0" height="10.1" fill="#e377c2"/>
<rect x="223.0" y="178.7" width="138.0" height="5.4" fill="#7f7f7f"/>
<rect x="223.0" y="147.6" width="138.0" height="31.0" fill="#bcbd22"/>
<rect x="223.0" y="139.8" width="138.0" height="7.8" fill="#17becf"/>
<rect x="223.0" y="102.7" width="138.0" height="37.1" fill="#1f77b4"/>
<rect x="223.0" y="85.4" width="138.0" height="17.3" fill="#d62728"/>
<rect x="223.0" y="55.0" width="138.0" height="30.4" fill="#8c564b"/>
<text x="292.0" y="402" text-anchor="middle" font-size="12" font-family="Arial">2</text>
<rect x="381.0" y="359.7" width="138.0" height="5.3" fill="#ff7f0e"/>
<rect x="381.0" y="312.2" width="138.0" height="47.5" fill="#d62728"/>
<rect x="381.0" y="308.2" width="138.0" height="4.0" fill="#9467bd"/>
<rect x="381.0" y="299.1" width="138.0" height="9.1" fill="#8c564b"/>
<rect x="381.0" y="289.3" width="138.0" height="9.9" fill="#e377c2"/>
<rect x="381.0" y="223.0" width="138.0" height="66.3" fill="#7f7f7f"/>
<rect x="381.0" y="130.0" width="138.0" height="93.0" fill="#bcbd22"/>
<rect x="381.0" y="128.9" width="138.0" height="1.1" fill="#17becf"/>
<rect x="381.0" y="114.3" width="138.0" height="14.6" fill="#1f77b4"/>
<rect x="381.0" y="111.1" width="138.0" height="3.2" fill="#ff7f0e"/>
<rect x="381.0" y="85.0" width="138.0" height="26.1" fill="#d62728"/>
<rect x="381.0" y="73.4" width="138.0" height="11.6" fill="#8c564b"/>
<rect x="381.0" y="55.0" width="138.0" height="18.4" fill="#e377c2"/>
<text x="450.0" y="402" text-anchor="middle" font-size="12" font-family="Arial">3</text>
<rect x="539.0" y="356.5" width="138.0" height="8.5" fill="#1f77b4"/>
<rect x="539.0" y="294.3" width="138.0" height="62.1" fill="#d62728"/>
<rect x="539.0" y="292.3" width="138.0" height="2.1" fill="#8c564b"/>
<rect x="539.0" y="281.1" width="138.0" height="11.2" fill="#e377c2"/>
<rect x="539.0" y="248.9" width="138.0" height="32.2" fill="#7f7f7f"/>
<rect x="539.0" y="213.4" width="138.0" height="35.5" fill="#bcbd22"/>
<rect x="539.0" y="193.0" width="138.0" height="20.4" fill="#1f77b4"/>
<rect x="539.0" y="181.9" width="138.0" height="11.0" fill="#2ca02c"/>
<rect x="539.0" y="150.8" width="138.0" height="31.1" fill="#d62728"/>
<rect x="539.0" y="61.6" width="138.0" height="89.2" fill="#9467bd"/>
<rect x="539.0" y="55.0" width="138.0" height="6.6" fill="#8c564b"/>
<text x="608.0" y="402" text-anchor="middle" font-size="12" font-family="Arial">4</text>
<rect x="697.0" y="348.2" width="138.0" height="16.8" fill="#2ca02c"/>
<rect x="697.0" y="315.0" width="138.0" height="33.1" fill="#d62728"/>
<rect x="697.0" y="288.6" width="138.0" height="26.4" fill="#bcbd22"/>
<rect x="697.0" y="252.5" width="138.0" height="36.1" fill="#1f77b4"/>
<rect x="697.0" y="228.8" width="138.0" height="23.7" fill="#2ca02c"/>
<rect x="697.0" y="208.2" width="138.0" height="20.6" fill="#d62728"/>
<rect x="697.0" y="82.0" width="138.0" height="126.2" fill="#9467bd"/>
<rect x="697.0" y="55.0" width="138.0" height="27.0" fill="#8c564b"/>
<text x="766.0" y="402" text-anchor="middle" font-size="12" font-family="Arial">5</text>
<rect x="750" y="48" width="12" height="12" fill="#1f77b4"/>
<text x="770" y="58" font-size="13" font-family="Arial">AAPL</text>
<rect x="750" y="68" width="12" height="12" fill="#ff7f0e"/>
<text x="770" y="78" font-size="13" font-family="Arial">CAT</text>
<rect x="750" y="88" width="12" height="12" fill="#2ca02c"/>
<text x="770" y="98" font-size="13" font-family="Arial">DIS</text>
<rect x="750" y="108" width="12" height="12" fill="#d62728"/>
<text x="770" y="118" font-size="13" font-family="Arial">ED</text>
<rect x="750" y="128" width="12" height="12" fill="#9467bd"/>
<text x="770" y="138" font-size="13" font-family="Arial">F</text>
<rect x="750" y="148" width="12" height="12" fill="#8c564b"/>
<text x="770" y="158" font-size="13" font-family="Arial">IBM</text>
<rect x="750" y="168" width="12" height="12" fill="#e377c2"/>
<text x="770" y="178" font-size="13" font-family="Arial">JNJ</text>
<rect x="750" y="188" width="12" height="12" fill="#7f7f7f"/>
<text x="770" y="198" font-size="13" font-family="Arial">KO</text>
<rect x="750" y="208" width="12" height="12" fill="#bcbd22"/>
<text x="770" y="218" font-size="13" font-family="Arial">MCD</text>
<rect x="750" y="228" width="12" height="12" fill="#17becf"/>
<text x="770" y="238" font-size="13" font-family="Arial">NEM</text>
</svg>