<svg xmlns="http://www.w3.org/2000/svg" width="900" height="420" viewBox="0 0 900 420">
<rect width="100%" height="100%" fill="white"/>
<text x="450.0" y="28" text-anchor="middle" font-size="20" font-family="Arial">Portfolio Wealth Evolution</text>
<line x1="55" y1="365" x2="845" y2="365" stroke="#333"/>
<line x1="55" y1="55" x2="55" y2="365" stroke="#333"/>
<text x="55" y="402" font-size="12" font-family="Arial">2012</text>
<text x="845" y="402" text-anchor="end" font-size="12" font-family="Arial">2016</text>
<text x="12" y="55" font-size="12" font-family="Arial">$146,848</text>
<text x="12" y="365" font-size="12" font-family="Arial">$97,872</text>
<polyline points="55.0,353.3 68.2,362.3 81.3,365.0 94.5,355.5 107.7,355.0 120.8,347.1 134.0,323.4 147.2,300.0 160.3,317.1 173.5,307.9 186.7,314.6 199.8,334.7 213.0,342.4 226.2,314.7 239.3,297.9 252.5,265.1 265.7,255.5 278.8,281.9 292.0,285.3 305.2,268.0 318.3,302.6 331.5,303.5 344.7,281.5 357.8,283.9 371.0,284.7 384.2,308.1 397.3,284.5 410.5,273.8 423.7,247.9 436.8,245.3 450.0,236.1 463.2,258.2 476.3,237.6 489.5,236.5 502.7,216.2 515.8,185.0 529.0,200.6 542.2,205.2 555.3,178.1 568.5,194.8 581.7,187.2 594.8,178.8 608.0,201.6 621.2,172.9 634.3,208.2 647.5,207.9 660.7,161.4 673.8,164.7 687.0,158.0 700.2,161.8 713.3,175.3 726.5,131.4 739.7,126.0 752.8,119.5 766.0,98.1 779.2,87.3 792.3,89.8 805.5,127.8 818.7,134.5 831.8,100.9 845.0,55.0" fill="none" stroke="#1f77b4" stroke-width="2.5"/>
<polyline points="55.0,351.5 68.2,361.6 81.3,365.0 94.5,356.6 107.7,357.0 120.8,349.8 134.0,324.8 147.2,301.7 160.3,317.4 173.5,309.4 186.7,314.2 199.8,332.5 213.0,340.8 226.2,313.6 239.3,293.3 252.5,262.0 265.7,243.7 278.8,278.4 292.0,275.9 305.2,262.0 318.3,295.8 331.5,297.2 344.7,269.2 357.8,273.1 371.0,274.1 384.2,300.1 397.3,281.3 410.5,272.2 423.7,245.1 436.8,238.9 450.0,229.9 463.2,250.0 476.3,228.7 489.5,226.3 502.7,204.1 515.8,169.7 529.0,188.4 542.2,192.0 555.3,164.3 568.5,180.9 581.7,176.7 594.8,170.8 608.0,195.2 621.2,162.5 634.3,201.2 647.5,199.8 660.7,158.7 673.8,166.3 687.0,156.2 700.2,154.5 713.3,164.7 726.5,121.4 739.7,117.3 752.8,111.5 766.0,83.1 779.2,72.9 792.3,81.5 805.5,109.8 818.7,119.3 831.8,98.0 845.0,55.0" fill="none" stroke="#2ca02c" stroke-width="2.5"/>
<polyline points="55.0,354.3 68.2,364.0 81.3,365.0 94.5,356.8 107.7,356.7 120.8,354.1 134.0,325.9 147.2,304.3 160.3,318.8 173.5,306.9 186.7,312.4 199.8,329.5 213.0,339.5 226.2,314.2 239.3,295.1 252.5,262.3 265.7,244.2 278.8,275.1 292.0,274.5 305.2,258.2 318.3,291.8 331.5,292.7 344.7,263.9 357.8,262.6 371.0,262.9 384.2,292.1 397.3,273.3 410.5,258.4 423.7,235.2 436.8,226.8 450.0,218.3 463.2,235.3 476.3,212.9 489.5,208.0 502.7,191.6 515.8,154.7 529.0,179.1 542.2,189.3 555.3,147.4 568.5,164.1 581.7,159.7 594.8,152.4 608.0,171.6 621.2,143.0 634.3,193.5 647.5,193.6 660.7,143.6 673.8,145.6 687.0,143.9 700.2,147.3 713.3,156.3 726.5,114.1 739.7,105.4 752.8,101.3 766.0,73.6 779.2,62.8 792.3,77.1 805.5,99.4 818.7,115.8 831.8,96.1 845.0,55.0" fill="none" stroke="#d62728" stroke-width="2.5"/>
<polyline points="55.0,348.5 68.2,359.5 81.3,365.0 94.5,354.7 107.7,356.3 120.8,346.1 134.0,315.6 147.2,286.2 160.3,305.2 173.5,295.5 186.7,302.0 199.8,326.2 213.0,335.3 226.2,307.4 239.3,288.4 252.5,247.1 265.7,234.0 278.8,265.2 292.0,276.8 305.2,253.9 318.3,294.3 331.5,294.9 344.7,268.1 357.8,267.0 371.0,264.3 384.2,301.3 397.3,283.0 410.5,270.2 423.7,232.5 436.8,233.2 450.0,218.8 463.2,255.2 476.3,230.9 489.5,230.4 502.7,219.4 515.8,185.7 529.0,210.7 542.2,220.6 555.3,190.2 568.5,213.0 581.7,202.7 594.8,192.8 608.0,216.9 621.2,178.7 634.3,220.1 647.5,217.1 660.7,166.8 673.8,167.8 687.0,158.9 700.2,164.5 713.3,187.1 726.5,137.4 739.7,131.2 752.8,124.2 766.0,112.9 779.2,106.4 792.3,103.7 805.5,152.2 818.7,158.2 831.8,101.9 845.0,55.0" fill="none" stroke="#9467bd" stroke-width="2.5"/>
<rect x="750" y="48" width="12" height="12" fill="#1f77b4"/>
<text x="770" y="58" font-size="13" font-family="Arial">OLS</text>
<rect x="750" y="70" width="12" height="12" fill="#2ca02c"/>
<text x="770" y="80" font-size="13" font-family="Arial">FF</text>
<rect x="750" y="92" width="12" height="12" fill="#d62728"/>
<text x="770" y="102" font-size="13" font-family="Arial">LASSO</text>
<rect x="750" y="114" width="12" height="12" fill="#9467bd"/>
<text x="770" y="124" font-size="13" font-family="Arial">BSS</text>
</svg>