<svg xmlns="http://www.w3.org/2000/svg" width="900" height="420" viewBox="0 0 900 420">
<rect width="100%" height="100%" fill="white"/>
<text x="450.0" y="28" text-anchor="middle" font-size="20" font-family="Arial">Project 2 Portfolio Wealth</text>
<line x1="55" y1="365" x2="845" y2="365" stroke="#333"/>
<line x1="55" y1="55" x2="55" y2="365" stroke="#333"/>
<text x="12" y="55" font-size="12" font-family="Arial">$396,463</text>
<text x="12" y="365" font-size="12" font-family="Arial">$81,512</text>
<polyline points="55.0,335.2 61.6,336.1 68.3,329.3 74.9,321.2 81.6,301.0 88.2,303.0 94.8,301.4 101.5,300.3 108.1,286.3 114.7,270.4 121.4,278.4 128.0,267.5 134.7,301.4 141.3,299.0 147.9,297.4 154.6,280.6 161.2,272.3 167.9,283.9 174.5,292.7 181.1,291.0 187.8,319.6 194.4,347.6 201.1,347.6 207.7,343.7 214.3,352.4 221.0,365.0 227.6,353.8 234.2,342.6 240.9,332.3 247.5,333.8 254.2,323.8 260.8,322.1 267.4,313.5 274.1,310.0 280.7,298.0 287.4,301.4 294.0,310.2 300.6,304.5 307.3,288.2 313.9,276.6 320.5,287.2 327.2,291.7 333.8,279.1 340.5,284.3 347.1,266.1 353.7,252.5 360.4,246.1 367.0,236.0 373.7,229.5 380.3,223.1 386.9,219.7 393.6,212.0 400.2,215.2 406.8,219.1 413.5,212.4 420.1,219.2 426.8,232.9 433.4,207.6 440.0,209.6 446.7,204.4 453.3,179.9 460.0,160.9 466.6,151.8 473.2,161.7 479.9,181.6 486.5,184.0 493.2,180.1 499.8,171.8 506.4,162.9 513.1,173.7 519.7,175.5 526.3,173.5 533.0,171.6 539.6,174.7 546.3,164.5 552.9,162.5 559.5,153.8 566.2,166.4 572.8,147.1 579.5,154.0 586.1,149.9 592.7,137.2 599.4,129.6 606.0,131.7 612.6,148.2 619.3,131.8 625.9,124.7 632.6,108.1 639.2,100.7 645.8,89.4 652.5,92.4 659.1,71.9 665.8,96.5 672.4,93.7 679.0,79.2 685.7,92.2 692.3,98.7 698.9,62.3 705.6,69.0 712.2,57.9 718.9,55.0 725.5,61.3 732.1,55.7 738.8,92.4 745.4,104.3 752.1,70.0 758.7,73.5 765.3,94.1 772.0,116.4 778.6,119.4 785.3,97.1 791.9,97.4 798.5,89.5 805.2,91.4 811.8,78.4 818.4,84.2 825.1,87.3 831.7,95.5 838.4,82.6 845.0,65.7" fill="none" stroke="#1f77b4" stroke-width="2.5"/>
<polyline points="55.0,358.9 61.6,360.5 68.3,365.0 74.9,359.6 81.6,351.1 88.2,345.9 94.8,332.6 101.5,339.0 108.1,331.5 114.7,340.4 121.4,334.8 128.0,334.2 134.7,331.4 141.3,319.7 147.9,313.4 154.6,310.6 161.2,315.5 167.9,308.5 174.5,311.2 181.1,337.8 187.8,329.1 194.4,316.7 201.1,304.8 207.7,290.9 214.3,279.6 221.0,290.1 227.6,279.2 234.2,275.8 240.9,279.5 247.5,264.4 254.2,269.9 260.8,265.9 267.4,267.6 274.1,252.4 280.7,241.9 287.4,213.9 294.0,226.5 300.6,211.5 307.3,193.7 313.9,210.7 320.5,226.3 327.2,209.1 333.8,215.3 340.5,192.4 347.1,219.3 353.7,228.6 360.4,254.2 367.0,241.3 373.7,234.0 380.3,251.0 386.9,256.4 393.6,236.8 400.2,245.0 406.8,259.5 413.5,270.9 420.1,277.3 426.8,299.5 433.4,283.1 440.0,276.0 446.7,271.2 453.3,275.3 460.0,279.9 466.6,267.8 473.2,278.3 479.9,277.4 486.5,293.1 493.2,315.2 499.8,309.9 506.4,324.0 513.1,314.1 519.7,305.1 526.3,309.0 533.0,318.1 539.6,316.0 546.3,319.5 552.9,308.1 559.5,289.0 566.2,284.8 572.8,289.7 579.5,281.6 586.1,282.7 592.7,267.8 599.4,258.9 606.0,242.0 612.6,247.4 619.3,239.9 625.9,237.0 632.6,242.7 639.2,241.3 645.8,228.5 652.5,234.4 659.1,234.4 665.8,223.4 672.4,221.9 679.0,191.9 685.7,187.3 692.3,185.3 698.9,167.2 705.6,174.1 712.2,188.3 718.9,172.8 725.5,164.5 732.1,137.9 738.8,128.4 745.4,109.5 752.1,129.5 758.7,120.6 765.3,112.9 772.0,79.7 778.6,99.2 785.3,84.7 791.9,55.0 798.5,73.7 805.2,78.8 811.8,89.5 818.4,93.1 825.1,116.1 831.7,89.0 838.4,65.9 845.0,76.6" fill="none" stroke="#2ca02c" stroke-width="2.5"/>
<polyline points="55.0,365.0 61.6,359.6 68.3,364.1 74.9,359.4 81.6,349.9 88.2,347.6 94.8,338.2 101.5,342.8 108.1,340.9 114.7,346.4 121.4,340.2 128.0,339.0 134.7,319.7 141.3,319.9 147.9,316.0 154.6,312.2 161.2,319.7 167.9,315.0 174.5,312.6 181.1,314.8 187.8,314.4 194.4,308.4 201.1,297.9 207.7,303.4 214.3,300.9 221.0,305.4 227.6,300.7 234.2,296.9 240.9,285.7 247.5,292.0 254.2,290.0 260.8,284.9 267.4,263.4 274.1,239.7 280.7,248.7 287.4,228.0 294.0,264.4 300.6,246.0 307.3,243.3 313.9,206.6 320.5,190.9 327.2,190.1 333.8,218.6 340.5,223.4 347.1,283.6 353.7,337.9 360.4,350.4 367.0,341.5 373.7,349.8 380.3,353.1 386.9,344.1 393.6,331.6 400.2,307.7 406.8,315.4 413.5,296.6 420.1,294.1 426.8,281.6 433.4,280.8 440.0,263.3 446.7,255.5 453.3,270.9 460.0,258.5 466.6,241.1 473.2,236.1 479.9,252.8 486.5,265.3 493.2,247.5 499.8,245.8 506.4,227.1 513.1,205.0 519.7,197.7 526.3,178.9 533.0,174.9 539.6,164.3 546.3,169.8 552.9,163.4 559.5,171.2 566.2,179.6 572.8,169.6 579.5,178.0 586.1,212.1 592.7,177.1 599.4,184.8 606.0,181.2 612.6,155.0 619.3,134.1 625.9,130.0 632.6,143.0 639.2,165.5 645.8,158.1 652.5,152.5 659.1,141.4 665.8,137.1 672.4,157.3 679.0,152.3 685.7,149.5 692.3,146.7 698.9,150.8 705.6,141.6 712.2,130.1 718.9,122.9 725.5,139.2 732.1,121.8 738.8,124.3 745.4,113.4 752.1,94.8 758.7,89.2 765.3,95.5 772.0,124.8 778.6,111.0 785.3,107.3 791.9,98.2 798.5,82.5 805.2,72.5 811.8,77.0 818.4,66.1 825.1,82.8 831.7,75.8 838.4,55.0 845.0,68.2" fill="none" stroke="#d62728" stroke-width="2.5"/>
<rect x="750" y="48" width="12" height="12" fill="#1f77b4"/>
<text x="770" y="58" font-size="13" font-family="Arial">Dataset 1</text>
<rect x="750" y="70" width="12" height="12" fill="#2ca02c"/>
<text x="770" y="80" font-size="13" font-family="Arial">Dataset 2</text>
<rect x="750" y="92" width="12" height="12" fill="#d62728"/>
<text x="770" y="102" font-size="13" font-family="Arial">Dataset 3</text>
</svg>